<?xml version="1.0"?>
<svg xmlns="http://www.w3.org/2000/svg" height="512px" viewBox="0 0 600 600" width="512px"><path d="m590 100c5.523438 0 10-4.476562 10-10v-40c-.035156-27.601562-22.398438-49.9648438-50-50h-420c-27.601562.0351562-49.964844 22.398438-50 50v80h-50c-16.566406 0-30 13.433594-30 30v280c0 16.566406 13.433594 30 30 30h50v30h-70c-5.523438 0-10 4.476562-10 10v40c.0351562 27.601562 22.398438 49.964844 50 50h420c27.601562-.035156 49.964844-22.398438 50-50v-80h50c16.566406 0 30-13.433594 30-30v-280c0-16.566406-13.433594-30-30-30h-50v-30zm-10-50v30h-60v-30c0-16.566406 13.433594-30 30-30s30 13.433594 30 30zm-530 530c-16.566406 0-30-13.433594-30-30v-30h400v30c.039062 10.855469 3.640625 21.398438 10.257812 30zm450-30c0 16.566406-13.433594 30-30 30s-30-13.433594-30-30v-40c0-5.523438-4.476562-10-10-10h-330v-30h400zm80-390v280c0 5.523438-4.476562 10-10 10h-540c-5.523438 0-10-4.476562-10-10v-280c0-5.523438 4.476562-10 10-10h540c5.523438 0 10 4.476562 10 10zm-480-30v-80c0-16.566406 13.433594-30 30-30h380.257812c-6.617187 8.601562-10.21875 19.144531-10.257812 30v80zm0 0" fill="#FFFFFF"/><path d="m80 210h20v20h-20zm0 0" fill="#FFFFFF"/><path d="m110 210h120v20h-120zm0 0" fill="#FFFFFF"/><path d="m240 210h60v20h-60zm0 0" fill="#FFFFFF"/><path d="m80 250h220v20h-220zm0 0" fill="#FFFFFF"/><path d="m80 290h220v20h-220zm0 0" fill="#FFFFFF"/><path d="m80 330h220v20h-220zm0 0" fill="#FFFFFF"/><path d="m80 370h40v20h-40zm0 0" fill="#FFFFFF"/><path d="m130 370h170v20h-170zm0 0" fill="#FFFFFF"/><path d="m330 390h180c5.523438 0 10-4.476562 10-10v-160c0-5.523438-4.476562-10-10-10h-180c-5.523438 0-10 4.476562-10 10v160c0 5.523438 4.476562 10 10 10zm170-20h-160v-60h160zm-160-140h160v60h-160zm0 0" fill="#FFFFFF"/></svg>
